<?xml version="1.0" encoding="UTF-8"?>
<svg width="18px" height="24px" viewBox="0 0 18 24" version="1.1" xmlns="http://www.w3.org/2000/svg" xmlns:xlink="http://www.w3.org/1999/xlink">
    <!-- Generator: Sketch 63.1 (92452) - https://sketch.com -->
    <title>noun_Resume_3495220</title>
    <desc>Created with Sketch.</desc>
    <g id="Page-1" stroke="none" stroke-width="1" fill="none" fill-rule="evenodd">
        <g id="noun_Resume_3495220" fill="#000000" fill-rule="nonzero">
            <path d="M17.416,6.772 L11.527,0.916 C11.464,0.854 11.381,0.82 11.295,0.82 L1.662,0.82 C1.014,0.82 0.486,1.348 0.486,1.997 L0.486,22.004 C0.486,22.653 1.013,23.181 1.662,23.181 L16.338,23.181 C16.986,23.181 17.514,22.653 17.514,22.004 L17.514,7.006 C17.514,6.918 17.479,6.833 17.416,6.772 Z M11.625,1.943 L16.384,6.675 L12.141,6.675 C11.856,6.675 11.625,6.443 11.625,6.158 L11.625,1.943 Z M16.338,22.52 L1.662,22.52 C1.377,22.52 1.146,22.288 1.146,22.003 L1.146,1.997 C1.146,1.712 1.376,1.48 1.662,1.48 L10.965,1.48 L10.965,6.159 C10.965,6.808 11.492,7.336 12.141,7.336 L16.854,7.336 L16.854,22.003 C16.854,22.288 16.622,22.52 16.338,22.52 Z" id="Shape"></path>
            <path d="M3.871,4.875 C4.103,5.496 4.572,5.903 5.068,5.903 C5.566,5.903 6.034,5.495 6.267,4.874 C6.453,4.743 6.568,4.514 6.568,4.255 C6.568,4.112 6.533,3.976 6.465,3.859 C6.488,3.476 6.448,2.994 6.173,2.651 C5.883,2.288 5.552,2.212 5.324,2.212 C4.958,2.212 4.643,2.404 4.465,2.544 C4.097,2.478 3.662,2.678 3.662,3.433 C3.662,3.58 3.671,3.712 3.686,3.831 C3.609,3.953 3.567,4.1 3.567,4.256 C3.568,4.514 3.686,4.744 3.871,4.875 Z M4.252,4.175 C4.348,4.095 4.389,3.97 4.361,3.849 C4.336,3.739 4.323,3.598 4.323,3.432 C4.323,3.272 4.355,3.194 4.34,3.191 C4.346,3.191 4.369,3.194 4.412,3.212 C4.539,3.268 4.684,3.239 4.779,3.141 C4.836,3.084 5.092,2.87 5.325,2.87 C5.402,2.87 5.521,2.89 5.658,3.062 C5.789,3.224 5.838,3.528 5.799,3.916 C5.789,4.01 5.82,4.104 5.885,4.174 C5.897,4.186 5.908,4.215 5.908,4.254 C5.908,4.299 5.892,4.329 5.894,4.33 C5.792,4.363 5.711,4.444 5.68,4.548 C5.56,4.944 5.296,5.242 5.068,5.242 C4.84,5.242 4.578,4.944 4.457,4.548 C4.426,4.444 4.355,4.368 4.253,4.335 C4.245,4.329 4.229,4.3 4.229,4.254 C4.229,4.207 4.247,4.18 4.252,4.175 Z" id="Shape"></path>
            <path d="M3.271,9.54 L6.865,9.54 C7.038,9.54 7.181,9.407 7.193,9.235 C7.263,8.325 7.322,7.458 7.277,6.842 C7.224,6.163 6.213,5.884 6.011,5.835 C5.89,5.805 5.763,5.847 5.683,5.941 L5.068,6.659 L4.455,5.941 C4.374,5.846 4.246,5.804 4.126,5.835 C3.924,5.884 2.913,6.163 2.861,6.843 C2.814,7.461 2.876,8.364 2.943,9.235 C2.956,9.407 3.1,9.54 3.271,9.54 Z M3.52,6.893 C3.526,6.807 3.779,6.642 4.092,6.533 L4.819,7.382 C4.944,7.528 5.196,7.528 5.321,7.382 L6.047,6.533 C6.345,6.636 6.612,6.799 6.619,6.892 C6.657,7.392 6.614,8.131 6.559,8.879 L3.579,8.879 C3.523,8.134 3.481,7.396 3.52,6.893 Z" id="Shape"></path>
            <rect id="Rectangle" x="2.915" y="10.702" width="12.17" height="1"></rect>
            <rect id="Rectangle" x="2.915" y="13.632" width="12.17" height="1"></rect>
            <rect id="Rectangle" x="2.915" y="16.563" width="12.17" height="1"></rect>
            <rect id="Rectangle" x="2.915" y="19.493" width="12.17" height="1"></rect>
        </g>
    </g>
</svg>